<?xml version="1.0" standalone="no"?>
<!DOCTYPE svg PUBLIC "-//W3C//DTD SVG 20010904//EN"
 "http://www.w3.org/TR/2001/REC-SVG-20010904/DTD/svg10.dtd">
<svg version="1.0" xmlns="http://www.w3.org/2000/svg"
 width="100.000000pt" height="100.000000pt" viewBox="0 0 180.000000 180.000000"
 preserveAspectRatio="xMidYMid meet">

<g transform="translate(0.000000,180.000000) scale(0.100000,-0.100000)"
fill="#000000" stroke="none">
<path d="M343 1143 l-53 -4 0 -239 0 -239 55 -6 c65 -9 159 2 196 20 116 60
165 231 102 356 -50 97 -128 126 -300 112z m185 -70 c63 -40 83 -188 37 -279
-32 -63 -63 -84 -130 -91 l-55 -6 0 196 c0 195 0 196 23 200 34 7 99 -3 125
-20z"/>
<path d="M1091 1141 c-103 -27 -160 -138 -149 -292 6 -82 36 -148 80 -174 44
-26 167 -26 217 0 34 17 35 17 51 -2 31 -39 40 -17 40 98 l0 109 -85 0 -85 0
0 -30 c0 -29 0 -30 45 -23 l45 6 0 -45 c0 -41 -2 -45 -33 -56 -116 -42 -196
25 -197 163 0 78 15 129 48 166 29 32 81 46 126 35 27 -7 56 -51 56 -86 0 -16
6 -20 30 -20 l30 0 0 75 0 75 -34 0 c-18 0 -60 2 -92 5 -32 2 -74 0 -93 -4z"/>
<path d="M760 900 l0 -240 45 0 45 0 0 240 0 240 -45 0 -45 0 0 -240z"/>
<path d="M1425 900 l0 -240 42 0 43 0 0 224 c0 123 3 231 6 240 5 13 -2 16
-42 16 l-49 0 0 -240z"/>
</g>
</svg>
